<svg width="14" height="7" viewBox="0 0 14 7" fill="none" xmlns="http://www.w3.org/2000/svg">
<path d="M13.1507 0.525848C13.0655 0.43993 12.9641 0.371735 12.8524 0.325197C12.7407 0.27866 12.6209 0.2547 12.4999 0.2547C12.3789 0.2547 12.2591 0.27866 12.1474 0.325197C12.0357 0.371735 11.9343 0.43993 11.8491 0.525848L7.65075 4.72418C7.56553 4.8101 7.46415 4.87829 7.35244 4.92483C7.24074 4.97137 7.12092 4.99533 6.99991 4.99533C6.8789 4.99533 6.75909 4.97137 6.64738 4.92483C6.53568 4.87829 6.4343 4.8101 6.34908 4.72418L2.15075 0.525848C2.06553 0.43993 1.96415 0.371735 1.85244 0.325197C1.74074 0.27866 1.62092 0.2547 1.49991 0.2547C1.3789 0.2547 1.25909 0.27866 1.14738 0.325197C1.03568 0.371735 0.934295 0.43993 0.849079 0.525848C0.678349 0.697597 0.58252 0.929928 0.58252 1.1721C0.58252 1.41427 0.678349 1.6466 0.849079 1.81835L5.05658 6.02585C5.57221 6.54083 6.27116 6.83009 6.99991 6.83009C7.72867 6.83009 8.42762 6.54083 8.94325 6.02585L13.1507 1.81835C13.3215 1.6466 13.4173 1.41427 13.4173 1.1721C13.4173 0.929928 13.3215 0.697597 13.1507 0.525848Z" fill="white"/>
</svg>
