<svg width="240" height="79" viewBox="0 0 240 79" fill="none" xmlns="http://www.w3.org/2000/svg">
<path d="M129.676 65.0932C126.945 62.7435 124.31 60.2349 121.77 57.5676C119.293 54.8368 116.975 52.0425 114.816 49.1847C112.72 46.3269 110.783 43.4373 109.005 40.516C107.29 37.5311 105.829 34.6098 104.623 31.752C102.464 34.1018 100.304 36.4833 98.145 38.8965C96.0493 41.2463 94.1758 43.6278 92.5246 46.0411C90.8735 48.3909 89.5398 50.7724 88.5237 53.1856C87.4441 55.5354 86.9043 57.8852 86.9043 60.2349C86.9043 63.0292 87.3806 65.4425 88.3332 67.4747C89.2223 69.4435 90.4289 71.0629 91.9531 72.333C93.4772 73.6032 95.2237 74.524 97.1924 75.0956C99.1611 75.6672 101.193 75.9529 103.289 75.9529C107.481 75.9529 111.926 74.9686 116.626 72.9999C121.325 71.0311 125.675 68.3956 129.676 65.0932ZM117.864 8.60364C117.864 6.38089 117.356 4.79321 116.34 3.84061C115.387 2.8245 114.339 2.31644 113.196 2.31644C112.244 2.31644 111.227 2.63397 110.148 3.26905C109.132 3.90412 108.179 4.82497 107.29 6.0316C106.464 7.17473 105.766 8.57189 105.194 10.2231C104.623 11.8743 104.337 13.6842 104.337 15.6529C104.337 19.2728 105.004 23.115 106.337 27.1795C107.925 25.5283 109.418 23.9089 110.815 22.3212C112.212 20.7335 113.418 19.1776 114.435 17.6534C115.514 16.0657 116.34 14.5416 116.911 13.0809C117.546 11.5567 117.864 10.0643 117.864 8.60364ZM154.539 78.1439C154.539 78.3345 154.412 78.525 154.158 78.7155C153.904 78.906 153.523 79.0013 153.015 79.0013C149.205 77.7947 145.458 76.1117 141.774 73.9525C138.091 71.7297 134.503 69.1577 131.01 66.2364C128.597 68.0781 126.088 69.761 123.484 71.2852C120.881 72.8093 118.213 74.1112 115.482 75.1909C112.815 76.2705 110.116 77.0961 107.385 77.6676C104.718 78.2392 102.146 78.525 99.6692 78.525C97.2559 78.525 94.9697 78.1757 92.8104 77.4771C90.6512 76.842 88.7777 75.8577 87.19 74.524C85.6024 73.1269 84.364 71.4122 83.4749 69.38C82.5223 67.3477 82.046 64.9662 82.046 62.2354C82.046 59.3141 82.7128 56.4563 84.0464 53.6619C85.3801 50.8041 87.0948 48.0098 89.1905 45.279C91.2862 42.5482 93.6043 39.8809 96.1445 37.2771C98.7483 34.6733 101.289 32.133 103.765 29.6563C101.924 24.7027 101.003 20.2254 101.003 16.2245C101.003 13.8747 101.416 11.7155 102.241 9.74677C103.13 7.77805 104.242 6.09511 105.575 4.69795C106.909 3.3008 108.37 2.22118 109.957 1.45909C111.609 0.6335 113.164 0.220703 114.625 0.220703C116.34 0.220703 117.896 0.792267 119.293 1.9354C120.69 3.01501 121.389 4.82497 121.389 7.36525C121.389 8.95293 120.976 10.6041 120.15 12.3188C119.388 14.0335 118.34 15.8117 117.007 17.6534C115.736 19.4316 114.212 21.3051 112.434 23.2738C110.719 25.179 108.909 27.1477 107.004 29.1799C109.1 34.9591 112.212 40.8335 116.34 46.8032C120.531 52.7093 125.612 58.2345 131.582 63.3785C134.82 60.4572 137.424 57.2501 139.393 53.7572C141.362 50.2643 142.346 46.6127 142.346 42.8022C142.346 41.5321 142.155 40.2619 141.774 38.9918C141.457 37.6582 140.79 36.261 139.774 34.8003C139.774 34.6733 139.964 34.5463 140.346 34.4193C140.727 34.2288 141.076 34.1335 141.393 34.1335C142.282 34.1335 142.981 34.451 143.489 35.0861C144.061 35.6577 144.473 36.3563 144.727 37.1818C145.045 38.0074 145.236 38.8648 145.299 39.7539C145.426 40.5795 145.49 41.2463 145.49 41.7544C145.49 45.9458 144.315 50.0103 141.965 53.9477C139.679 57.8217 136.694 61.3781 133.01 64.6169C139.171 69.888 146.125 74.1747 153.873 77.4771C154.317 77.7311 154.539 77.9534 154.539 78.1439Z" fill="#D0D0D0"/>
<path d="M18.24 44.1283C18.24 42.1443 18.112 40.4963 17.856 39.1843C17.632 37.8723 17.312 37.2163 16.896 37.2163C16.64 37.2163 16.4 37.4083 16.176 37.7923C15.952 38.1443 15.76 38.6563 15.6 39.3283C15.472 39.9683 15.36 40.7363 15.264 41.6323C15.2 42.4963 15.168 43.4403 15.168 44.4643C15.168 46.2883 15.296 48.2563 15.552 50.3683C15.808 52.4483 16.256 54.4643 16.896 56.4163C17.344 54.3683 17.68 52.2723 17.904 50.1283C18.128 47.9523 18.24 45.9523 18.24 44.1283ZM38.352 22.3363C38.352 22.4963 38.288 22.6243 38.16 22.7203C38.032 22.8163 37.872 22.9283 37.68 23.0563C36.72 23.6323 35.936 24.4323 35.328 25.4563C34.72 26.4803 34.224 27.6003 33.84 28.8163C33.488 30.0323 33.248 31.2803 33.12 32.5603C32.992 33.8083 32.928 34.9603 32.928 36.0163C32.928 36.7523 32.96 37.6643 33.024 38.7523C33.12 39.8083 33.216 40.9763 33.312 42.2563C33.44 43.5363 33.536 44.8963 33.6 46.3363C33.696 47.7443 33.744 49.1843 33.744 50.6563C33.744 52.7363 33.616 54.7523 33.36 56.7043C33.136 58.6563 32.672 60.4003 31.968 61.9363C31.296 63.4723 30.352 64.7043 29.136 65.6323C27.92 66.5603 26.336 67.0243 24.384 67.0243C23.488 67.0243 22.64 66.8483 21.84 66.4963C21.072 66.1763 20.352 65.7123 19.68 65.1043C19.04 64.4963 18.448 63.7923 17.904 62.9923C17.392 62.1923 16.928 61.3123 16.512 60.3523C16.096 61.4723 15.6 62.5123 15.024 63.4723C14.48 64.4323 13.872 65.2643 13.2 65.9683C12.528 66.6723 11.792 67.2163 10.992 67.6003C10.192 67.9843 9.34399 68.1763 8.44799 68.1763C7.07199 68.1763 5.90399 67.8243 4.94399 67.1203C4.01599 66.4163 3.24799 65.4883 2.63999 64.3363C2.03199 63.2163 1.55199 61.9363 1.19999 60.4963C0.879991 59.0243 0.639991 57.5363 0.479991 56.0323C0.319991 54.4963 0.207991 53.0083 0.143991 51.5683C0.111991 50.0963 0.0799912 48.8003 0.0479912 47.6803C-0.0160088 45.6643 0.0159912 43.7603 0.143991 41.9683C0.303991 40.1443 0.479991 38.5123 0.671991 37.0723C0.863991 35.6003 1.05599 34.3363 1.24799 33.2803C1.43999 32.2243 1.56799 31.4403 1.63199 30.9283C1.66399 30.7363 1.85599 30.6083 2.20799 30.5443C2.59199 30.4803 2.92799 30.4483 3.21599 30.4483C3.43999 30.4483 3.63199 30.4803 3.79199 30.5443C3.95199 30.5763 4.03199 30.6723 4.03199 30.8323C4.03199 31.0243 3.95199 31.3603 3.79199 31.8403C3.63199 32.2883 3.39199 33.1523 3.07199 34.4323C2.94399 35.0083 2.79999 35.8403 2.63999 36.9283C2.51199 37.9843 2.38399 39.1843 2.25599 40.5283C2.15999 41.8723 2.07999 43.3123 2.01599 44.8483C1.95199 46.3523 1.91999 47.8243 1.91999 49.2643C1.91999 50.3843 1.96799 51.6163 2.06399 52.9603C2.15999 54.2723 2.31999 55.5843 2.54399 56.8963C2.76799 58.1763 3.07199 59.4243 3.45599 60.6403C3.83999 61.8563 4.30399 62.9283 4.84799 63.8563C5.42399 64.7843 6.09599 65.5203 6.86399 66.0643C7.63199 66.6403 8.52799 66.9283 9.55199 66.9283C10.32 66.9283 11.024 66.7363 11.664 66.3523C12.304 65.9683 12.896 65.4243 13.44 64.7203C13.984 64.0483 14.464 63.2483 14.88 62.3203C15.328 61.3923 15.728 60.3843 16.08 59.2963C15.344 57.2803 14.8 55.1363 14.448 52.8643C14.096 50.5923 13.92 48.4963 13.92 46.5763C13.92 45.1683 13.968 43.7763 14.064 42.4003C14.192 41.0243 14.368 39.7923 14.592 38.7043C14.816 37.6163 15.104 36.7363 15.456 36.0643C15.808 35.3923 16.224 35.0563 16.704 35.0563C17.088 35.0563 17.424 35.2963 17.712 35.7763C18.032 36.2563 18.288 36.9123 18.48 37.7443C18.704 38.5763 18.864 39.5683 18.96 40.7203C19.088 41.8403 19.152 43.0563 19.152 44.3683C19.152 46.4803 19.008 48.7043 18.72 51.0403C18.432 53.3443 17.984 55.6003 17.376 57.8083C17.792 58.9283 18.272 59.9683 18.816 60.9283C19.36 61.8563 19.968 62.6723 20.64 63.3763C21.344 64.0803 22.112 64.6243 22.944 65.0083C23.808 65.4243 24.752 65.6323 25.776 65.6323C27.184 65.6323 28.336 65.2803 29.232 64.5763C30.128 63.9043 30.832 62.9763 31.344 61.7923C31.856 60.5763 32.208 59.1843 32.4 57.6163C32.592 56.0163 32.688 54.3043 32.688 52.4803C32.688 50.8483 32.624 49.1683 32.496 47.4403C32.4 45.7123 32.288 44.0003 32.16 42.3043C32.032 40.5763 31.904 38.9123 31.776 37.3123C31.68 35.6803 31.632 34.1763 31.632 32.8003C31.632 31.8083 31.776 30.6563 32.064 29.3443C32.384 28.0323 32.8 26.8003 33.312 25.6483C33.856 24.4643 34.464 23.4723 35.136 22.6723C35.84 21.8403 36.576 21.4243 37.344 21.4243C37.568 21.4243 37.792 21.5363 38.016 21.7603C38.24 21.9523 38.352 22.1443 38.352 22.3363Z" fill="black"/>
<path d="M53.3396 54.2083C53.3396 53.7283 53.2596 53.3443 53.0996 53.0563C52.9396 52.7363 52.6836 52.5763 52.3316 52.5763C51.7876 52.5763 51.3716 52.8483 51.0836 53.3923C50.7956 53.9043 50.6676 54.5603 50.6996 55.3603C50.7956 57.0563 51.0996 58.4803 51.6116 59.6323C52.1556 58.8963 52.5716 58.0643 52.8596 57.1363C53.1796 56.2083 53.3396 55.2323 53.3396 54.2083ZM66.2996 54.1603C66.0756 54.6403 65.8356 55.1363 65.5796 55.6483C65.3236 56.1283 65.0356 56.6083 64.7156 57.0883C63.0836 59.5203 61.4356 61.3283 59.7716 62.5123C58.1076 63.6963 56.5556 64.2883 55.1156 64.2883C53.2916 64.2883 51.8996 63.4243 50.9396 61.6963C49.8196 62.8163 48.5556 63.6643 47.1476 64.2403C45.7716 64.8163 44.4116 65.1043 43.0676 65.1043C42.2676 65.1043 41.4996 64.9923 40.7636 64.7683C40.0596 64.5443 39.4516 64.2083 38.9396 63.7603C38.3956 63.2803 37.9636 62.6883 37.6436 61.9843C37.3236 61.2483 37.1636 60.4003 37.1636 59.4403C37.1636 58.2883 37.4356 57.1203 37.9796 55.9363C38.4916 54.7203 39.2116 53.6323 40.1396 52.6723C41.0996 51.6803 42.2196 50.8643 43.4996 50.2243C44.7796 49.5843 46.1716 49.2643 47.6756 49.2643C48.8916 49.2643 49.8356 49.4403 50.5076 49.7923C51.1796 50.1123 51.5156 50.4163 51.5156 50.7043C51.5156 50.8323 51.4516 50.9283 51.3236 50.9923C51.1956 51.0563 51.0836 51.0883 50.9876 51.0883C50.9556 51.0563 50.9236 51.0403 50.8916 51.0403H50.8436C50.4596 50.6883 50.0276 50.4163 49.5476 50.2243C49.0676 50.0003 48.3636 49.8883 47.4356 49.8883C46.1876 49.8883 45.0516 50.1603 44.0276 50.7043C43.0356 51.2163 42.1876 51.9043 41.4836 52.7683C40.7796 53.6003 40.2356 54.5283 39.8516 55.5523C39.4676 56.5763 39.2756 57.5843 39.2756 58.5763C39.2756 60.4963 39.7236 61.8883 40.6196 62.7523C41.5156 63.6163 42.6356 64.0483 43.9796 64.0483C45.0676 64.0483 46.2036 63.7763 47.3876 63.2323C48.5716 62.6883 49.6276 61.9203 50.5556 60.9283C50.0436 59.7763 49.7876 58.2723 49.7876 56.4163C49.7876 55.2003 50.0116 54.1443 50.4596 53.2483C50.9076 52.3523 51.5476 51.9043 52.3796 51.9043C53.5316 51.9043 54.1076 52.5763 54.1076 53.9203C54.1076 55.2643 53.9156 56.4803 53.5316 57.5683C53.1476 58.6243 52.6356 59.5843 51.9956 60.4483C52.8916 62.1123 54.1396 62.9443 55.7396 62.9443C56.9556 62.9443 58.2516 62.4323 59.6276 61.4083C61.0356 60.3843 62.4116 58.8963 63.7556 56.9443C64.0756 56.4643 64.3636 55.9683 64.6196 55.4563C64.8756 54.9443 65.1316 54.4323 65.3876 53.9203L66.2996 54.1603Z" fill="black"/>
<path d="M72.9667 32.7043C72.9667 30.8803 72.6627 29.4243 72.0547 28.3363C71.4787 27.2163 70.5027 26.6563 69.1267 26.6563C68.6467 26.6563 68.1987 26.8163 67.7827 27.1363C67.3987 27.4243 67.0627 27.8243 66.7747 28.3363C66.4867 28.8483 66.2627 29.4403 66.1027 30.1123C65.9427 30.7843 65.8627 31.5043 65.8627 32.2723C65.8627 34.3843 65.8787 36.3043 65.9107 38.0323C65.9427 39.7603 65.9747 41.3923 66.0067 42.9283C66.0707 44.4643 66.1347 45.9523 66.1987 47.3923C66.2627 48.8323 66.3267 50.3043 66.3907 51.8083C67.3187 50.5603 68.1827 49.1363 68.9827 47.5363C69.7827 45.9043 70.4707 44.2403 71.0467 42.5443C71.6547 40.8163 72.1187 39.1043 72.4387 37.4083C72.7907 35.7123 72.9667 34.1443 72.9667 32.7043ZM90.3427 54.1603C90.1187 54.6403 89.8787 55.1363 89.6227 55.6483C89.3987 56.1603 89.1107 56.6403 88.7587 57.0883C86.9987 59.5843 84.9987 61.5523 82.7587 62.9923C80.5187 64.4003 78.2947 65.1043 76.0867 65.1043C74.7107 65.1043 73.3987 64.7843 72.1507 64.1443C70.9027 63.5363 69.7987 62.5443 68.8387 61.1683C68.7107 61.0083 68.6467 60.8643 68.6467 60.7363C68.6467 60.4483 68.8387 60.3043 69.2227 60.3043C69.2547 60.3043 69.3667 60.3363 69.5587 60.4003C69.8147 60.4003 70.1027 60.4963 70.4227 60.6883C70.7747 60.8483 71.2707 60.9283 71.9107 60.9283C72.9027 60.9283 73.8307 60.7523 74.6947 60.4003C75.5587 60.0483 76.2947 59.6003 76.9027 59.0563C77.5427 58.4803 78.0387 57.8403 78.3907 57.1363C78.7427 56.4003 78.9187 55.6483 78.9187 54.8803C78.9187 53.9203 78.6627 53.0883 78.1507 52.3843C77.6707 51.6803 76.8387 51.3283 75.6547 51.3283C74.4387 51.3283 73.3187 51.7603 72.2947 52.6243C71.2707 53.4563 70.3427 54.4803 69.5107 55.6963C68.7107 56.8803 68.0227 58.1443 67.4467 59.4883C66.8707 60.8003 66.4387 61.9523 66.1507 62.9443C65.9907 63.4883 65.8467 63.8243 65.7187 63.9523C65.5907 64.0803 65.4467 64.1443 65.2867 64.1443C64.9347 64.1443 64.7747 63.8083 64.8067 63.1363C64.8067 62.8483 64.8227 62.4963 64.8547 62.0803C64.8867 61.6643 64.9187 61.2163 64.9507 60.7363C64.9507 60.2563 64.9667 59.7763 64.9987 59.2963C65.0307 58.7843 65.0467 58.3203 65.0467 57.9043C65.0467 56.4643 65.0147 54.8163 64.9507 52.9603C64.8867 51.0723 64.8067 49.1363 64.7107 47.1523C64.6147 45.1363 64.5347 43.1363 64.4707 41.1523C64.4067 39.1683 64.3747 37.3443 64.3747 35.6803C64.3747 34.3683 64.4707 33.1043 64.6627 31.8883C64.8547 30.6403 65.1587 29.5523 65.5747 28.6243C65.9907 27.6643 66.5187 26.9123 67.1587 26.3683C67.7987 25.7923 68.5507 25.5043 69.4147 25.5043C70.3107 25.5043 71.0627 25.6643 71.6707 25.9843C72.3107 26.2723 72.8227 26.7043 73.2067 27.2803C73.5907 27.8243 73.8627 28.4963 74.0227 29.2963C74.2147 30.0643 74.3107 30.9123 74.3107 31.8403C74.3107 33.4403 74.0867 35.2003 73.6387 37.1203C73.1907 39.0083 72.5987 40.9123 71.8627 42.8323C71.1267 44.7523 70.2787 46.6083 69.3187 48.4003C68.3907 50.1603 67.4307 51.6963 66.4387 53.0083C66.5027 53.9683 66.5347 54.9603 66.5347 55.9843C66.5667 57.0083 66.6147 58.0963 66.6787 59.2483C67.4787 57.5203 68.3587 56.0323 69.3187 54.7843C69.7347 54.2403 70.1987 53.7123 70.7107 53.2003C71.2547 52.6563 71.8147 52.1763 72.3907 51.7603C72.9987 51.3443 73.6387 51.0083 74.3107 50.7523C75.0147 50.4963 75.7507 50.3683 76.5187 50.3683C77.7347 50.3683 78.7907 50.6723 79.6867 51.2803C80.5827 51.8883 81.0307 52.8643 81.0307 54.2083C81.0307 55.4883 80.7107 56.5763 80.0707 57.4723C79.4627 58.3683 78.6947 59.1203 77.7667 59.7283C76.8387 60.3043 75.8467 60.7363 74.7907 61.0243C73.7347 61.3123 72.7747 61.4883 71.9107 61.5523C71.8467 61.5523 71.8147 61.5683 71.8147 61.6003C71.8147 61.6643 71.8627 61.7603 71.9587 61.8883C72.5987 62.6243 73.3187 63.1523 74.1187 63.4723C74.9187 63.7923 75.7507 63.9523 76.6147 63.9523C77.6707 63.9523 78.7427 63.7603 79.8307 63.3763C80.9187 62.9603 81.9587 62.4323 82.9507 61.7923C83.9427 61.1203 84.8547 60.3683 85.6867 59.5363C86.5507 58.6723 87.2547 57.8083 87.7987 56.9443C88.1187 56.4643 88.4067 55.9683 88.6627 55.4563C88.9187 54.9443 89.1747 54.4323 89.4307 53.9203L90.3427 54.1603Z" fill="black"/>
<path d="M97.1096 51.1843C97.1096 50.3203 96.8856 49.6163 96.4376 49.0723C96.0216 48.4963 95.3336 48.2083 94.3736 48.2083C93.8616 48.2083 93.3976 48.3683 92.9816 48.6883C92.5656 49.0083 92.2136 49.4403 91.9256 49.9843C91.6376 50.4963 91.4136 51.1043 91.2536 51.8083C91.0936 52.5123 91.0136 53.2483 91.0136 54.0163C91.0136 55.2323 91.1416 56.3203 91.3976 57.2803C91.6856 58.2083 92.0856 59.0243 92.5976 59.7283C93.2696 59.1843 93.8776 58.5603 94.4216 57.8563C94.9656 57.1523 95.4296 56.4163 95.8136 55.6483C96.2296 54.8803 96.5496 54.1123 96.7736 53.3443C96.9976 52.5763 97.1096 51.8563 97.1096 51.1843ZM109.254 54.1603C109.03 54.6403 108.79 55.1363 108.534 55.6483C108.31 56.1283 108.022 56.6083 107.67 57.0883C106.102 59.3283 104.31 61.0243 102.294 62.1763C100.31 63.2963 98.4056 63.8563 96.5816 63.8563C95.5576 63.8563 94.5976 63.6803 93.7016 63.3283C92.8376 62.9763 92.0856 62.4483 91.4456 61.7443C90.8056 61.0403 90.2936 60.1603 89.9096 59.1043C89.5256 58.0483 89.3336 56.8003 89.3336 55.3603C89.3336 54.4003 89.4776 53.4403 89.7656 52.4803C90.0536 51.5203 90.4376 50.6563 90.9176 49.8883C91.4296 49.1203 92.0056 48.4963 92.6456 48.0163C93.3176 47.5363 94.0216 47.2963 94.7576 47.2963C95.9416 47.2963 96.8056 47.6483 97.3496 48.3523C97.8936 49.0243 98.1656 49.8883 98.1656 50.9443C98.1656 52.3843 97.7176 53.9523 96.8216 55.6483C95.9576 57.3123 94.7096 58.8643 93.0776 60.3043C94.2936 61.6803 95.8616 62.3683 97.7816 62.3683C99.2216 62.3683 100.726 61.9363 102.294 61.0723C103.862 60.1763 105.334 58.8003 106.71 56.9443C107.062 56.4963 107.35 56.0163 107.574 55.5043C107.83 54.9603 108.086 54.4323 108.342 53.9203L109.254 54.1603Z" fill="black"/>
<path d="M150.839 42.0643C149.655 42.0643 148.519 42.1923 147.431 42.4483C146.375 42.7043 145.431 43.0083 144.599 43.3603C143.799 43.7123 143.143 44.0803 142.631 44.4643C142.151 44.8483 141.911 45.1843 141.911 45.4723C141.911 45.8563 142.359 46.0483 143.255 46.0483C144.791 46.0483 146.247 45.6803 147.623 44.9443C149.031 44.2083 150.295 43.2483 151.415 42.0643H150.839ZM164.807 49.2643C164.807 50.8323 164.359 52.5283 163.463 54.3523C162.599 56.1763 161.399 57.9843 159.863 59.7763C158.327 61.5683 156.503 63.2963 154.391 64.9603C152.279 66.6243 150.007 68.0963 147.575 69.3763C145.143 70.6563 142.583 71.6643 139.895 72.4003C137.207 73.1683 134.519 73.5523 131.831 73.5523C131.383 73.5523 130.887 73.5363 130.343 73.5043C129.831 73.4723 129.351 73.3923 128.903 73.2643C128.455 73.1683 128.071 72.9923 127.751 72.7363C127.431 72.5123 127.271 72.1923 127.271 71.7763C127.271 71.2003 127.559 70.6403 128.135 70.0963C128.711 69.5843 129.447 69.1043 130.343 68.6563C131.239 68.2083 132.215 67.8083 133.271 67.4563C134.327 67.1043 135.335 66.8003 136.295 66.5443C137.287 66.2883 138.151 66.0803 138.887 65.9203C139.623 65.7923 140.119 65.7283 140.375 65.7283C140.567 65.7283 140.711 65.7763 140.807 65.8723C140.903 65.9683 140.951 66.0643 140.951 66.1603C140.951 66.3203 140.871 66.4003 140.711 66.4003H140.087C139.255 66.4003 138.199 66.5603 136.919 66.8803C135.639 67.2003 134.391 67.6003 133.175 68.0803C131.959 68.5603 130.919 69.0883 130.055 69.6643C129.191 70.2723 128.759 70.8323 128.759 71.3443C128.759 71.6963 128.871 71.9683 129.095 72.1603C129.351 72.3843 129.655 72.5603 130.007 72.6883C130.359 72.8163 130.727 72.8963 131.111 72.9283C131.495 72.9923 131.831 73.0243 132.119 73.0243C134.391 73.0243 136.711 72.6403 139.079 71.8723C141.479 71.1043 143.799 70.0803 146.039 68.8003C148.311 67.5523 150.439 66.0963 152.423 64.4323C154.439 62.8003 156.199 61.1043 157.703 59.3443C159.207 57.5523 160.391 55.7763 161.255 54.0163C162.119 52.2243 162.551 50.5603 162.551 49.0243C162.551 47.1363 161.767 45.5683 160.199 44.3203C158.663 43.0403 156.119 42.3043 152.567 42.1123C151.127 43.4563 149.543 44.5443 147.815 45.3763C146.119 46.2083 144.391 46.6243 142.631 46.6243C141.383 46.6243 140.759 46.3203 140.759 45.7123C140.759 45.3283 141.015 44.8963 141.527 44.4163C142.071 43.9043 142.807 43.4243 143.735 42.9763C144.695 42.5283 145.831 42.1603 147.143 41.8723C148.455 41.5523 149.895 41.3923 151.463 41.3923H152.039C153.095 40.1443 153.943 38.7843 154.583 37.3123C155.223 35.8083 155.543 34.3363 155.543 32.8963C155.543 31.9363 155.367 31.0243 155.015 30.1603C154.695 29.2643 154.151 28.4963 153.383 27.8563C152.647 27.2163 151.671 26.7043 150.455 26.3203C149.271 25.9363 147.831 25.7443 146.135 25.7443C144.983 25.7443 143.383 25.9043 141.335 26.2243C139.319 26.5443 137.127 27.0403 134.759 27.7123C132.423 28.3523 130.039 29.1683 127.607 30.1603C125.175 31.1523 122.967 32.3043 120.983 33.6163C118.999 34.9283 117.383 36.4163 116.135 38.0803C114.887 39.7443 114.263 41.5843 114.263 43.6003C114.263 43.8563 114.215 44.0803 114.119 44.2723C114.023 44.4323 113.927 44.5123 113.831 44.5123C113.703 44.5123 113.607 44.3843 113.543 44.1283C113.447 43.8403 113.399 43.3763 113.399 42.7363C113.687 40.6563 114.535 38.7683 115.943 37.0723C117.351 35.3763 119.095 33.8723 121.175 32.5603C123.223 31.2163 125.479 30.0643 127.943 29.1043C130.407 28.1443 132.839 27.3603 135.239 26.7523C137.671 26.1123 139.927 25.6483 142.007 25.3603C144.119 25.0403 145.847 24.8803 147.191 24.8803C149.143 24.8803 150.791 25.0723 152.135 25.4563C153.511 25.8083 154.631 26.3043 155.495 26.9443C156.359 27.5523 156.983 28.2883 157.367 29.1523C157.751 30.0163 157.943 30.9283 157.943 31.8883C157.943 33.4563 157.511 35.0883 156.647 36.7843C155.815 38.4483 154.679 40.0003 153.239 41.4403C155.287 41.5363 157.047 41.8083 158.519 42.2563C159.991 42.6723 161.191 43.2323 162.119 43.9363C163.047 44.6083 163.719 45.4083 164.135 46.3363C164.583 47.2323 164.807 48.2083 164.807 49.2643ZM139.367 61.8883C139.367 62.3363 139.335 62.6563 139.271 62.8483C139.207 63.0403 139.031 63.1363 138.743 63.1363C138.103 63.2003 137.783 62.5603 137.783 61.2163C137.751 56.8003 137.703 52.7683 137.639 49.1203C137.607 45.4723 137.559 42.3203 137.495 39.6643C137.463 36.9763 137.431 34.8483 137.399 33.2803C137.367 31.7123 137.351 30.8163 137.351 30.5923C137.351 30.3363 137.431 30.1603 137.591 30.0643C137.751 29.9683 137.943 29.8883 138.167 29.8243C138.423 29.8243 138.615 29.9043 138.743 30.0643C138.903 30.2243 138.983 30.4163 138.983 30.6403C138.983 33.2003 138.999 35.8403 139.031 38.5603C139.063 41.2483 139.095 43.9363 139.127 46.6243C139.191 49.3123 139.239 51.9523 139.271 54.5443C139.335 57.1363 139.367 59.5843 139.367 61.8883Z" fill="black"/>
<path d="M183.465 54.2083C183.465 53.7283 183.385 53.3443 183.225 53.0563C183.065 52.7363 182.809 52.5763 182.457 52.5763C181.913 52.5763 181.497 52.8483 181.209 53.3923C180.921 53.9043 180.793 54.5603 180.825 55.3603C180.921 57.0563 181.225 58.4803 181.737 59.6323C182.281 58.8963 182.697 58.0643 182.985 57.1363C183.305 56.2083 183.465 55.2323 183.465 54.2083ZM196.425 54.1603C196.201 54.6403 195.961 55.1363 195.705 55.6483C195.449 56.1283 195.161 56.6083 194.841 57.0883C193.209 59.5203 191.561 61.3283 189.897 62.5123C188.233 63.6963 186.681 64.2883 185.241 64.2883C183.417 64.2883 182.025 63.4243 181.065 61.6963C179.945 62.8163 178.681 63.6643 177.273 64.2403C175.897 64.8163 174.537 65.1043 173.193 65.1043C172.393 65.1043 171.625 64.9923 170.889 64.7683C170.185 64.5443 169.577 64.2083 169.065 63.7603C168.521 63.2803 168.089 62.6883 167.769 61.9843C167.449 61.2483 167.289 60.4003 167.289 59.4403C167.289 58.2883 167.561 57.1203 168.105 55.9363C168.617 54.7203 169.337 53.6323 170.265 52.6723C171.225 51.6803 172.345 50.8643 173.625 50.2243C174.905 49.5843 176.297 49.2643 177.801 49.2643C179.017 49.2643 179.961 49.4403 180.633 49.7923C181.305 50.1123 181.641 50.4163 181.641 50.7043C181.641 50.8323 181.577 50.9283 181.449 50.9923C181.321 51.0563 181.209 51.0883 181.113 51.0883C181.081 51.0563 181.049 51.0403 181.017 51.0403H180.969C180.585 50.6883 180.153 50.4163 179.673 50.2243C179.193 50.0003 178.489 49.8883 177.561 49.8883C176.313 49.8883 175.177 50.1603 174.153 50.7043C173.161 51.2163 172.313 51.9043 171.609 52.7683C170.905 53.6003 170.361 54.5283 169.977 55.5523C169.593 56.5763 169.401 57.5843 169.401 58.5763C169.401 60.4963 169.849 61.8883 170.745 62.7523C171.641 63.6163 172.761 64.0483 174.105 64.0483C175.193 64.0483 176.329 63.7763 177.513 63.2323C178.697 62.6883 179.753 61.9203 180.681 60.9283C180.169 59.7763 179.913 58.2723 179.913 56.4163C179.913 55.2003 180.137 54.1443 180.585 53.2483C181.033 52.3523 181.673 51.9043 182.505 51.9043C183.657 51.9043 184.233 52.5763 184.233 53.9203C184.233 55.2643 184.041 56.4803 183.657 57.5683C183.273 58.6243 182.761 59.5843 182.121 60.4483C183.017 62.1123 184.265 62.9443 185.865 62.9443C187.081 62.9443 188.377 62.4323 189.753 61.4083C191.161 60.3843 192.537 58.8963 193.881 56.9443C194.201 56.4643 194.489 55.9683 194.745 55.4563C195.001 54.9443 195.257 54.4323 195.513 53.9203L196.425 54.1603Z" fill="black"/>
<path d="M203.092 32.7043C203.092 30.8803 202.788 29.4243 202.18 28.3363C201.604 27.2163 200.628 26.6563 199.252 26.6563C198.772 26.6563 198.324 26.8163 197.908 27.1363C197.524 27.4243 197.188 27.8243 196.9 28.3363C196.612 28.8483 196.388 29.4403 196.228 30.1123C196.068 30.7843 195.988 31.5043 195.988 32.2723C195.988 34.3843 196.004 36.3043 196.036 38.0323C196.068 39.7603 196.1 41.3923 196.132 42.9283C196.196 44.4643 196.26 45.9523 196.324 47.3923C196.388 48.8323 196.452 50.3043 196.516 51.8083C197.444 50.5603 198.308 49.1363 199.108 47.5363C199.908 45.9043 200.596 44.2403 201.172 42.5443C201.78 40.8163 202.244 39.1043 202.564 37.4083C202.916 35.7123 203.092 34.1443 203.092 32.7043ZM220.468 54.1603C220.244 54.6403 220.004 55.1363 219.748 55.6483C219.524 56.1603 219.236 56.6403 218.884 57.0883C217.124 59.5843 215.124 61.5523 212.884 62.9923C210.644 64.4003 208.42 65.1043 206.212 65.1043C204.836 65.1043 203.524 64.7843 202.276 64.1443C201.028 63.5363 199.924 62.5443 198.964 61.1683C198.836 61.0083 198.772 60.8643 198.772 60.7363C198.772 60.4483 198.964 60.3043 199.348 60.3043C199.38 60.3043 199.492 60.3363 199.684 60.4003C199.94 60.4003 200.228 60.4963 200.548 60.6883C200.9 60.8483 201.396 60.9283 202.036 60.9283C203.028 60.9283 203.956 60.7523 204.82 60.4003C205.684 60.0483 206.42 59.6003 207.028 59.0563C207.668 58.4803 208.164 57.8403 208.516 57.1363C208.868 56.4003 209.044 55.6483 209.044 54.8803C209.044 53.9203 208.788 53.0883 208.276 52.3843C207.796 51.6803 206.964 51.3283 205.78 51.3283C204.564 51.3283 203.444 51.7603 202.42 52.6243C201.396 53.4563 200.468 54.4803 199.636 55.6963C198.836 56.8803 198.148 58.1443 197.572 59.4883C196.996 60.8003 196.564 61.9523 196.276 62.9443C196.116 63.4883 195.972 63.8243 195.844 63.9523C195.716 64.0803 195.572 64.1443 195.412 64.1443C195.06 64.1443 194.9 63.8083 194.932 63.1363C194.932 62.8483 194.948 62.4963 194.98 62.0803C195.012 61.6643 195.044 61.2163 195.076 60.7363C195.076 60.2563 195.092 59.7763 195.124 59.2963C195.156 58.7843 195.172 58.3203 195.172 57.9043C195.172 56.4643 195.14 54.8163 195.076 52.9603C195.012 51.0723 194.932 49.1363 194.836 47.1523C194.74 45.1363 194.66 43.1363 194.596 41.1523C194.532 39.1683 194.5 37.3443 194.5 35.6803C194.5 34.3683 194.596 33.1043 194.788 31.8883C194.98 30.6403 195.284 29.5523 195.7 28.6243C196.116 27.6643 196.644 26.9123 197.284 26.3683C197.924 25.7923 198.676 25.5043 199.54 25.5043C200.436 25.5043 201.188 25.6643 201.796 25.9843C202.436 26.2723 202.948 26.7043 203.332 27.2803C203.716 27.8243 203.988 28.4963 204.148 29.2963C204.34 30.0643 204.436 30.9123 204.436 31.8403C204.436 33.4403 204.212 35.2003 203.764 37.1203C203.316 39.0083 202.724 40.9123 201.988 42.8323C201.252 44.7523 200.404 46.6083 199.444 48.4003C198.516 50.1603 197.556 51.6963 196.564 53.0083C196.628 53.9683 196.66 54.9603 196.66 55.9843C196.692 57.0083 196.74 58.0963 196.804 59.2483C197.604 57.5203 198.484 56.0323 199.444 54.7843C199.86 54.2403 200.324 53.7123 200.836 53.2003C201.38 52.6563 201.94 52.1763 202.516 51.7603C203.124 51.3443 203.764 51.0083 204.436 50.7523C205.14 50.4963 205.876 50.3683 206.644 50.3683C207.86 50.3683 208.916 50.6723 209.812 51.2803C210.708 51.8883 211.156 52.8643 211.156 54.2083C211.156 55.4883 210.836 56.5763 210.196 57.4723C209.588 58.3683 208.82 59.1203 207.892 59.7283C206.964 60.3043 205.972 60.7363 204.916 61.0243C203.86 61.3123 202.9 61.4883 202.036 61.5523C201.972 61.5523 201.94 61.5683 201.94 61.6003C201.94 61.6643 201.988 61.7603 202.084 61.8883C202.724 62.6243 203.444 63.1523 204.244 63.4723C205.044 63.7923 205.876 63.9523 206.74 63.9523C207.796 63.9523 208.868 63.7603 209.956 63.3763C211.044 62.9603 212.084 62.4323 213.076 61.7923C214.068 61.1203 214.98 60.3683 215.812 59.5363C216.676 58.6723 217.38 57.8083 217.924 56.9443C218.244 56.4643 218.532 55.9683 218.788 55.4563C219.044 54.9443 219.3 54.4323 219.556 53.9203L220.468 54.1603Z" fill="black"/>
<path d="M227.235 51.1843C227.235 50.3203 227.011 49.6163 226.563 49.0723C226.147 48.4963 225.459 48.2083 224.499 48.2083C223.987 48.2083 223.523 48.3683 223.107 48.6883C222.691 49.0083 222.339 49.4403 222.051 49.9843C221.763 50.4963 221.539 51.1043 221.379 51.8083C221.219 52.5123 221.139 53.2483 221.139 54.0163C221.139 55.2323 221.267 56.3203 221.523 57.2803C221.811 58.2083 222.211 59.0243 222.723 59.7283C223.395 59.1843 224.003 58.5603 224.547 57.8563C225.091 57.1523 225.555 56.4163 225.939 55.6483C226.355 54.8803 226.675 54.1123 226.899 53.3443C227.123 52.5763 227.235 51.8563 227.235 51.1843ZM239.379 54.1603C239.155 54.6403 238.915 55.1363 238.659 55.6483C238.435 56.1283 238.147 56.6083 237.795 57.0883C236.227 59.3283 234.435 61.0243 232.419 62.1763C230.435 63.2963 228.531 63.8563 226.707 63.8563C225.683 63.8563 224.723 63.6803 223.827 63.3283C222.963 62.9763 222.211 62.4483 221.571 61.7443C220.931 61.0403 220.419 60.1603 220.035 59.1043C219.651 58.0483 219.459 56.8003 219.459 55.3603C219.459 54.4003 219.603 53.4403 219.891 52.4803C220.179 51.5203 220.563 50.6563 221.043 49.8883C221.555 49.1203 222.131 48.4963 222.771 48.0163C223.443 47.5363 224.147 47.2963 224.883 47.2963C226.067 47.2963 226.931 47.6483 227.475 48.3523C228.019 49.0243 228.291 49.8883 228.291 50.9443C228.291 52.3843 227.843 53.9523 226.947 55.6483C226.083 57.3123 224.835 58.8643 223.203 60.3043C224.419 61.6803 225.987 62.3683 227.907 62.3683C229.347 62.3683 230.851 61.9363 232.419 61.0723C233.987 60.1763 235.459 58.8003 236.835 56.9443C237.187 56.4963 237.475 56.0163 237.699 55.5043C237.955 54.9603 238.211 54.4323 238.467 53.9203L239.379 54.1603Z" fill="black"/>
</svg>
