<svg width="43" height="156" viewBox="0 0 43 156" fill="none" xmlns="http://www.w3.org/2000/svg">
<path d="M38.3362 155.685C39.1543 155.815 39.923 155.258 40.053 154.439L42.1713 141.107C42.3013 140.288 41.7434 139.52 40.9252 139.39C40.1071 139.26 39.3384 139.818 39.2084 140.636L37.3255 152.487L25.4741 150.604C24.656 150.474 23.8873 151.032 23.7574 151.85C23.6274 152.669 24.1852 153.437 25.0034 153.567L38.3362 155.685ZM25.9442 0.213824C6.34747 32.0568 -1.35085 56.4496 1.24622 80.1729C3.83691 103.838 16.6503 126.555 37.3576 155.085L39.7855 153.323C19.109 124.835 6.72692 102.669 4.22841 79.8464C1.73627 57.0817 9.05495 33.3813 28.4991 1.78618L25.9442 0.213824Z" fill="url(#paint0_linear_113_345)"/>
<defs>
<linearGradient id="paint0_linear_113_345" x1="37.5618" y1="158.49" x2="20.0839" y2="5.0415" gradientUnits="userSpaceOnUse">
<stop stop-color="white"/>
<stop offset="1" stop-color="white" stop-opacity="0"/>
</linearGradient>
</defs>
</svg>
