<svg width="94" height="51" viewBox="0 0 94 51" fill="none" xmlns="http://www.w3.org/2000/svg">
<path d="M29.5566 9.48047H30.834V18H29.5566V9.48047ZM30.1543 16.7754H33.1543V18H30.1543V16.7754ZM34.2746 9.48047H35.552V18H34.2746V9.48047ZM34.884 16.7637H37.9895V18H34.884V16.7637ZM34.884 13.1543H37.6965V14.3848H34.884V13.1543ZM34.884 9.48047H37.9895V10.7168H34.884V9.48047ZM40.6977 9.48047H41.7172L43.7152 18H42.4027L41.2074 11.8184L40.0121 18H38.6996L40.6977 9.48047ZM40.018 15.2051H42.4438V16.4062H40.018V15.2051ZM45.5504 16.7754H46.8746C47.0738 16.7754 47.2262 16.7168 47.3316 16.5996C47.441 16.4785 47.4957 16.3086 47.4957 16.0898V11.3906C47.4957 11.1719 47.441 11.0039 47.3316 10.8867C47.2262 10.7656 47.0738 10.7051 46.8746 10.7051H45.5504V9.48047H46.9332C47.3238 9.48047 47.6578 9.55273 47.9352 9.69727C48.2125 9.8418 48.4234 10.0527 48.568 10.3301C48.7125 10.6035 48.7848 10.9355 48.7848 11.3262V16.1543C48.7848 16.541 48.7105 16.873 48.5621 17.1504C48.4176 17.4277 48.2066 17.6387 47.9293 17.7832C47.652 17.9277 47.318 18 46.9273 18H45.5504V16.7754ZM44.7184 9.48047H45.9957V18H44.7184V9.48047ZM50.198 9.48047H51.4754V18H50.198V9.48047ZM50.8074 16.7637H53.9129V18H50.8074V16.7637ZM50.8074 13.1543H53.6199V14.3848H50.8074V13.1543ZM50.8074 9.48047H53.9129V10.7168H50.8074V9.48047ZM55.6133 13.1719H57.166C57.3301 13.1719 57.4707 13.1426 57.5879 13.084C57.7051 13.0254 57.793 12.9395 57.8516 12.8262C57.9141 12.7129 57.9453 12.5762 57.9453 12.416V11.5137C57.9453 11.3418 57.9141 11.1953 57.8516 11.0742C57.793 10.9492 57.7051 10.8555 57.5879 10.793C57.4707 10.7305 57.3301 10.6992 57.166 10.6992H55.6133V9.47461H57.0723C57.5293 9.47461 57.9199 9.55078 58.2441 9.70312C58.5723 9.85156 58.8203 10.0723 58.9883 10.3652C59.1602 10.6543 59.2461 11.002 59.2461 11.4082V12.4043C59.2461 12.8223 59.1602 13.1816 58.9883 13.4824C58.8203 13.7793 58.5723 14.0059 58.2441 14.1621C57.9199 14.3184 57.5293 14.3965 57.0723 14.3965H55.6133V13.1719ZM55.0332 9.47461H56.2988V18H55.0332V9.47461ZM56.9434 14.1328L58.127 13.8633L59.4863 18H58.1035L56.9434 14.1328ZM31.5664 29.0879C31.1445 29.0879 30.7832 29.002 30.4824 28.8301C30.1816 28.6582 29.9512 28.4102 29.791 28.0859C29.6348 27.7617 29.5566 27.3711 29.5566 26.9141V22.5723C29.5566 22.1113 29.6348 21.7188 29.791 21.3945C29.9512 21.0703 30.1816 20.8223 30.4824 20.6504C30.7832 20.4785 31.1445 20.3926 31.5664 20.3926C31.9883 20.3926 32.3496 20.4785 32.6504 20.6504C32.9551 20.8223 33.1855 21.0723 33.3418 21.4004C33.498 21.7246 33.5762 22.1152 33.5762 22.5723V23.0938H32.2812V22.5723C32.2812 22.3809 32.2539 22.2188 32.1992 22.0859C32.1445 21.9492 32.0625 21.8457 31.9531 21.7754C31.8477 21.7051 31.7188 21.6699 31.5664 21.6699C31.418 21.6699 31.2891 21.7051 31.1797 21.7754C31.0742 21.8457 30.9922 21.9492 30.9336 22.0859C30.8789 22.2188 30.8516 22.3809 30.8516 22.5723V26.9141C30.8516 27.1016 30.8789 27.2637 30.9336 27.4004C30.9922 27.5332 31.0742 27.6348 31.1797 27.7051C31.2891 27.7754 31.418 27.8105 31.5664 27.8105C31.7188 27.8105 31.8477 27.7754 31.9531 27.7051C32.0625 27.6348 32.1445 27.5332 32.1992 27.4004C32.2539 27.2637 32.2812 27.0996 32.2812 26.9082V26.3867H33.5762V26.9082C33.5762 27.3652 33.498 27.7578 33.3418 28.0859C33.1855 28.4102 32.9551 28.6582 32.6504 28.8301C32.3496 29.002 31.9883 29.0879 31.5664 29.0879ZM34.5723 20.4805H35.8496V29H34.5723V20.4805ZM35.1699 27.7754H38.1699V29H35.1699V27.7754ZM40.5781 20.4805H41.5977L43.5957 29H42.2832L41.0879 22.8184L39.8926 29H38.5801L40.5781 20.4805ZM39.8984 26.2051H42.3242V27.4062H39.8984V26.2051ZM46.1387 29.0879C45.6934 29.0879 45.3125 29.0078 44.9961 28.8477C44.6836 28.6875 44.4453 28.4551 44.2812 28.1504C44.1172 27.8418 44.0352 27.4707 44.0352 27.0371V26.5977L45.3125 26.5918V27.0078C45.3125 27.2695 45.3828 27.4727 45.5234 27.6172C45.668 27.7617 45.873 27.834 46.1387 27.834C46.3926 27.834 46.5879 27.7637 46.7246 27.623C46.8652 27.4785 46.9355 27.2754 46.9355 27.0137V26.2695C46.9355 26.0859 46.8867 25.9297 46.7891 25.8008C46.6953 25.6719 46.5762 25.5645 46.4316 25.4785C46.2871 25.3887 46.0879 25.2832 45.834 25.1621C45.8223 25.1582 45.8105 25.1543 45.7988 25.1504C45.7871 25.1426 45.7754 25.1367 45.7637 25.1328L45.6875 25.0977C45.3477 24.9336 45.0645 24.7695 44.8379 24.6055C44.6152 24.4414 44.4258 24.2188 44.2695 23.9375C44.1172 23.6562 44.041 23.3047 44.041 22.8828V22.4141C44.041 21.9883 44.1211 21.625 44.2812 21.3242C44.4453 21.0195 44.6836 20.7891 44.9961 20.6328C45.3086 20.4727 45.6855 20.3926 46.127 20.3926C46.5605 20.3926 46.9297 20.4727 47.2344 20.6328C47.5391 20.7891 47.7695 21.0215 47.9258 21.3301C48.0859 21.6348 48.166 22.0039 48.166 22.4375V22.9004L46.8887 22.9121V22.4668C46.8887 22.2012 46.8223 21.998 46.6895 21.8574C46.5605 21.7129 46.373 21.6406 46.127 21.6406C45.8652 21.6406 45.6641 21.707 45.5234 21.8398C45.3867 21.9727 45.3184 22.1602 45.3184 22.4023V22.9531C45.3184 23.1406 45.3652 23.3008 45.459 23.4336C45.5527 23.5664 45.668 23.6758 45.8047 23.7617C45.9453 23.8477 46.1387 23.9473 46.3848 24.0605C46.4199 24.0762 46.4551 24.0938 46.4902 24.1133C46.5254 24.1289 46.5605 24.1465 46.5957 24.166C46.6113 24.1699 46.625 24.1758 46.6367 24.1836C46.6523 24.1914 46.666 24.1973 46.6777 24.2012C47.0098 24.3652 47.2773 24.5195 47.4805 24.6641C47.6836 24.8047 47.8555 25.0078 47.9961 25.2734C48.1406 25.5352 48.2129 25.875 48.2129 26.293V27.0371C48.2129 27.4707 48.1328 27.8418 47.9727 28.1504C47.8125 28.4551 47.5762 28.6875 47.2637 28.8477C46.9551 29.0078 46.5801 29.0879 46.1387 29.0879ZM51.3184 29.0879C50.873 29.0879 50.4922 29.0078 50.1758 28.8477C49.8633 28.6875 49.625 28.4551 49.4609 28.1504C49.2969 27.8418 49.2148 27.4707 49.2148 27.0371V26.5977L50.4922 26.5918V27.0078C50.4922 27.2695 50.5625 27.4727 50.7031 27.6172C50.8477 27.7617 51.0527 27.834 51.3184 27.834C51.5723 27.834 51.7676 27.7637 51.9043 27.623C52.0449 27.4785 52.1152 27.2754 52.1152 27.0137V26.2695C52.1152 26.0859 52.0664 25.9297 51.9688 25.8008C51.875 25.6719 51.7559 25.5645 51.6113 25.4785C51.4668 25.3887 51.2676 25.2832 51.0137 25.1621C51.002 25.1582 50.9902 25.1543 50.9785 25.1504C50.9668 25.1426 50.9551 25.1367 50.9434 25.1328L50.8672 25.0977C50.5273 24.9336 50.2441 24.7695 50.0176 24.6055C49.7949 24.4414 49.6055 24.2188 49.4492 23.9375C49.2969 23.6562 49.2207 23.3047 49.2207 22.8828V22.4141C49.2207 21.9883 49.3008 21.625 49.4609 21.3242C49.625 21.0195 49.8633 20.7891 50.1758 20.6328C50.4883 20.4727 50.8652 20.3926 51.3066 20.3926C51.7402 20.3926 52.1094 20.4727 52.4141 20.6328C52.7188 20.7891 52.9492 21.0215 53.1055 21.3301C53.2656 21.6348 53.3457 22.0039 53.3457 22.4375V22.9004L52.0684 22.9121V22.4668C52.0684 22.2012 52.002 21.998 51.8691 21.8574C51.7402 21.7129 51.5527 21.6406 51.3066 21.6406C51.0449 21.6406 50.8438 21.707 50.7031 21.8398C50.5664 21.9727 50.498 22.1602 50.498 22.4023V22.9531C50.498 23.1406 50.5449 23.3008 50.6387 23.4336C50.7324 23.5664 50.8477 23.6758 50.9844 23.7617C51.125 23.8477 51.3184 23.9473 51.5645 24.0605C51.5996 24.0762 51.6348 24.0938 51.6699 24.1133C51.7051 24.1289 51.7402 24.1465 51.7754 24.166C51.791 24.1699 51.8047 24.1758 51.8164 24.1836C51.832 24.1914 51.8457 24.1973 51.8574 24.2012C52.1895 24.3652 52.457 24.5195 52.6602 24.6641C52.8633 24.8047 53.0352 25.0078 53.1758 25.2734C53.3203 25.5352 53.3926 25.875 53.3926 26.293V27.0371C53.3926 27.4707 53.3125 27.8418 53.1523 28.1504C52.9922 28.4551 52.7559 28.6875 52.4434 28.8477C52.1348 29.0078 51.7598 29.0879 51.3184 29.0879ZM55.6953 29H54.418V20.4805H55.6953V29ZM58.7539 29.0879C58.332 29.0879 57.9707 29.002 57.6699 28.8301C57.3691 28.6582 57.1387 28.4102 56.9785 28.0859C56.8223 27.7617 56.7441 27.3711 56.7441 26.9141V22.5723C56.7441 22.1113 56.8223 21.7188 56.9785 21.3945C57.1387 21.0703 57.3691 20.8223 57.6699 20.6504C57.9707 20.4785 58.332 20.3926 58.7539 20.3926C59.1758 20.3926 59.5371 20.4785 59.8379 20.6504C60.1426 20.8223 60.373 21.0723 60.5293 21.4004C60.6855 21.7246 60.7637 22.1152 60.7637 22.5723V23.0938H59.4688V22.5723C59.4688 22.3809 59.4414 22.2188 59.3867 22.0859C59.332 21.9492 59.25 21.8457 59.1406 21.7754C59.0352 21.7051 58.9062 21.6699 58.7539 21.6699C58.6055 21.6699 58.4766 21.7051 58.3672 21.7754C58.2617 21.8457 58.1797 21.9492 58.1211 22.0859C58.0664 22.2188 58.0391 22.3809 58.0391 22.5723V26.9141C58.0391 27.1016 58.0664 27.2637 58.1211 27.4004C58.1797 27.5332 58.2617 27.6348 58.3672 27.7051C58.4766 27.7754 58.6055 27.8105 58.7539 27.8105C58.9062 27.8105 59.0352 27.7754 59.1406 27.7051C59.25 27.6348 59.332 27.5332 59.3867 27.4004C59.4414 27.2637 59.4688 27.0996 59.4688 26.9082V26.3867H60.7637V26.9082C60.7637 27.3652 60.6855 27.7578 60.5293 28.0859C60.373 28.4102 60.1426 28.6582 59.8379 28.8301C59.5371 29.002 59.1758 29.0879 58.7539 29.0879Z" fill="white"/>
<path d="M5.40242 9H0L2.8601 10.9254L2.82038 23.4627L3.019 24.1791L3.41623 24.9851L3.93264 25.6119L10.7254 30V28.0299V27.6716L10.6857 27.403L10.5268 27.0896L9.65285 25.8358L5.40242 23.1045V9Z" fill="url(#paint0_linear_10151_3)"/>
<path d="M19.0674 25.5224L12.1554 30V10.8358L12.1952 10.2985L12.3143 9.85075L12.4732 9.53731L12.8307 9.1791L13.228 9H23L20.1796 11.0597V14.4627L17.5579 16.1194V11.9552H14.8964V24.8507L17.5181 23.0597V19.6567L20.1399 18V21V23.6418L19.981 24.1791L19.8221 24.5821L19.4646 25.0746L19.0674 25.5224Z" fill="url(#paint1_linear_10151_3)"/>
<path d="M10.8048 9H6.7133L8.18307 10.0299V21.2687L10.8048 23.1045V9Z" fill="url(#paint2_linear_10151_3)"/>
<path d="M11 9V23L8.41176 21.1594V10.004L7 9H11Z" fill="white"/>
<path d="M4 8V7.01124H7.26687L5.42638 2.1573C8.12036 2.97008 9.8354 3.36789 8.09509 5.4382C9.48314 6.5937 10.1129 6.46824 10.9479 4.76404C8.9185 4.10736 9.83022 2.64025 11.5 0C13.198 2.55276 14.0925 3.95891 12.0982 4.89888C12.8537 6.38768 13.4242 6.6733 14.9049 5.4382C14.5524 5.22184 14.1687 4.85393 14.0767 4.04494C13.9847 3.23595 16.061 2.45551 17.5736 2.1573L15.7331 7.01124H19V8H4Z" fill="white"/>
<defs>
<linearGradient id="paint0_linear_10151_3" x1="11.5" y1="9" x2="11.5" y2="30" gradientUnits="userSpaceOnUse">
<stop stop-color="#926C47"/>
<stop offset="1" stop-color="#F8ECCD"/>
</linearGradient>
<linearGradient id="paint1_linear_10151_3" x1="11.5" y1="9" x2="11.5" y2="30" gradientUnits="userSpaceOnUse">
<stop stop-color="#926C47"/>
<stop offset="1" stop-color="#F8ECCD"/>
</linearGradient>
<linearGradient id="paint2_linear_10151_3" x1="11.5" y1="9" x2="11.5" y2="30" gradientUnits="userSpaceOnUse">
<stop stop-color="#926C47"/>
<stop offset="1" stop-color="#F8ECCD"/>
</linearGradient>
</defs>
</svg>
