<svg width="15" height="17" viewBox="0 0 15 17" fill="none" xmlns="http://www.w3.org/2000/svg">
<path d="M3.76665 6.9C2.91796 6.9 2.10403 6.56286 1.50391 5.96274C0.903792 5.36263 0.56665 4.54869 0.56665 3.7C0.56665 2.85131 0.903792 2.03737 1.50391 1.43726C2.10403 0.837142 2.91796 0.5 3.76665 0.5L11.2333 0.5C12.082 0.5 12.8959 0.837142 13.4961 1.43726C14.0962 2.03737 14.4333 2.85131 14.4333 3.7C14.4333 4.54869 14.0962 5.36263 13.4961 5.96274C12.8959 6.56286 12.082 6.9 11.2333 6.9H9.09998V4.23333C9.09998 3.52609 8.81903 2.84781 8.31894 2.34772C7.81884 1.84762 7.14056 1.56667 6.43332 1.56667C5.72607 1.56667 5.0478 1.84762 4.5477 2.34772C4.0476 2.84781 3.76665 3.52609 3.76665 4.23333V6.9Z" fill="white"/>
<path d="M6.43328 2.63333C6.00894 2.63333 5.60197 2.8019 5.30191 3.10196C5.00186 3.40202 4.83328 3.80899 4.83328 4.23333V9.08667C4.23096 9.20962 3.68961 9.5369 3.30085 10.0131C2.9121 10.4893 2.69983 11.0853 2.69995 11.7C2.69995 12.973 3.20566 14.1939 4.10584 15.0941C5.00601 15.9943 6.22691 16.5 7.49995 16.5H8.03328C9.44777 16.5 10.8043 15.9381 11.8045 14.9379C12.8047 13.9377 13.3666 12.5812 13.3666 11.1667V10.2568C13.3666 9.64942 13.1253 9.06692 12.6959 8.63743C12.2664 8.20795 11.6839 7.96667 11.0765 7.96667H8.03328V4.23333C8.03328 3.80899 7.86471 3.40202 7.56466 3.10196C7.2646 2.8019 6.85763 2.63333 6.43328 2.63333Z" fill="white"/>
</svg>
